<svg xmlns="http://www.w3.org/2000/svg" width="25" height="25" viewBox="0 0 25 25" fill="none">
<mask id="mask0_127_17" style="mask-type:alpha" maskUnits="userSpaceOnUse" x="0" y="0" width="25" height="25">
<rect width="25" height="25" fill="#D9D9D9"/>
</mask>
<g mask="url(#mask0_127_17)">
<path d="M12.4999 21.875L10.9895 20.5208C9.23603 18.941 7.78638 17.5781 6.64054 16.4323C5.49471 15.2865 4.58325 14.2578 3.90617 13.3464C3.22909 12.4349 2.756 11.5972 2.4869 10.8333C2.2178 10.0694 2.08325 9.2882 2.08325 8.48959C2.08325 6.85764 2.63013 5.4948 3.72388 4.40105C4.81763 3.3073 6.18047 2.76042 7.81242 2.76042C8.7152 2.76042 9.57457 2.95139 10.3905 3.33334C11.2065 3.71528 11.9096 4.25348 12.4999 4.94792C13.0902 4.25348 13.7933 3.71528 14.6093 3.33334C15.4253 2.95139 16.2846 2.76042 17.1874 2.76042C18.8194 2.76042 20.1822 3.3073 21.276 4.40105C22.3697 5.4948 22.9166 6.85764 22.9166 8.48959C22.9166 9.2882 22.782 10.0694 22.5129 10.8333C22.2438 11.5972 21.7708 12.4349 21.0937 13.3464C20.4166 14.2578 19.5051 15.2865 18.3593 16.4323C17.2135 17.5781 15.7638 18.941 14.0103 20.5208L12.4999 21.875Z" fill="white"/>
</g>
</svg>