<svg width="25" height="25" viewBox="0 0 25 25" fill="none" xmlns="http://www.w3.org/2000/svg">
<g id="pic-icon">
<g id="add_photo_alternate">
<mask id="mask0_127_26" style="mask-type:alpha" maskUnits="userSpaceOnUse" x="0" y="0" width="25" height="25">
<rect id="Bounding box" width="25" height="25" fill="#D9D9D9"/>
</mask>
<g mask="url(#mask0_127_26)">
<path id="add_photo_alternate_2" d="M5.20833 21.875C4.63542 21.875 4.14497 21.671 3.73698 21.263C3.32899 20.855 3.125 20.3646 3.125 19.7917V5.20833C3.125 4.63542 3.32899 4.14497 3.73698 3.73698C4.14497 3.32899 4.63542 3.125 5.20833 3.125H14.5833V5.20833H5.20833V19.7917H19.7917V10.4167H21.875V19.7917C21.875 20.3646 21.671 20.855 21.263 21.263C20.855 21.671 20.3646 21.875 19.7917 21.875H5.20833ZM17.7083 9.375V7.29167H15.625V5.20833H17.7083V3.125H19.7917V5.20833H21.875V7.29167H19.7917V9.375H17.7083ZM6.25 17.7083H18.75L14.8437 12.5L11.7187 16.6667L9.375 13.5417L6.25 17.7083Z" fill="white"/>
</g>
</g>
</g>
</svg>
