<svg xmlns="http://www.w3.org/2000/svg" width="30" height="30" viewBox="0 0 30 30" fill="none">
  <mask id="mask0_159_228" style="mask-type:alpha" maskUnits="userSpaceOnUse" x="0" y="0" width="30" height="30">
    <rect width="30" height="30" fill="#D9D9D9"/>
  </mask>
  <g mask="url(#mask0_159_228)">
    <path d="M15 15C13.625 15 12.4479 14.5104 11.4688 13.5313C10.4896 12.5521 10 11.375 10 10C10 8.625 10.4896 7.44792 11.4688 6.46875C12.4479 5.48958 13.625 5 15 5C16.375 5 17.5521 5.48958 18.5312 6.46875C19.5104 7.44792 20 8.625 20 10C20 11.375 19.5104 12.5521 18.5312 13.5313C17.5521 14.5104 16.375 15 15 15ZM5 25V21.5C5 20.7917 5.18229 20.1406 5.54688 19.5469C5.91146 18.9531 6.39583 18.5 7 18.1875C8.29167 17.5417 9.60417 17.0573 10.9375 16.7344C12.2708 16.4115 13.625 16.25 15 16.25C16.375 16.25 17.7292 16.4115 19.0625 16.7344C20.3958 17.0573 21.7083 17.5417 23 18.1875C23.6042 18.5 24.0885 18.9531 24.4531 19.5469C24.8177 20.1406 25 20.7917 25 21.5V25H5Z" fill="#69D2FF"/>
  </g>
</svg>