<svg width="117" height="26" viewBox="0 0 117 26" fill="none" xmlns="http://www.w3.org/2000/svg">
<path d="M7.7 20.224C4.872 20.224 2.38 19.496 0.616 17.788L2.66 14.932C3.976 16.024 5.796 16.584 7.308 16.584C8.624 16.584 9.184 16.08 9.184 15.408C9.184 14.708 8.344 14.176 6.02 13.756C2.492 13.084 0.812 11.656 0.812 9.22C0.812 6.448 3.248 4.516 6.804 4.516C9.408 4.516 11.564 5.356 13.104 6.588L11.172 9.416C9.996 8.548 8.54 8.072 7.112 8.072C5.964 8.072 5.376 8.464 5.376 9.08C5.376 9.808 5.908 10.2 8.848 10.732C12.18 11.348 13.832 12.916 13.832 15.352C13.832 18.152 11.62 20.224 7.7 20.224ZM24.3534 4.544C28.4134 4.544 31.2134 7.932 31.2134 12.384C31.2134 16.864 28.4134 20.224 24.3534 20.224C22.5334 20.224 21.0774 19.524 19.9574 18.46V25.124H15.3374V4.964H19.9574V6.308C21.0774 5.244 22.5334 4.544 24.3534 4.544ZM23.2054 16.332C25.3614 16.332 26.5934 14.764 26.5934 12.384C26.5934 10.004 25.3614 8.436 23.2054 8.436C21.1334 8.436 19.7334 10.2 19.7334 12.384C19.7334 14.54 21.1334 16.332 23.2054 16.332ZM40.8995 20.224C36.0275 20.224 32.4995 16.92 32.4995 12.412C32.4995 7.736 36.1115 4.656 40.9555 4.012L41.4035 4.656C46.2195 4.936 49.3275 7.792 49.3275 12.412C49.3275 16.92 45.7995 20.224 40.8995 20.224ZM40.8995 16.332C43.2515 16.332 44.6515 14.708 44.6515 12.16C44.6515 9.696 43.2515 8.212 40.8995 8.212C38.7995 8.212 37.1195 9.696 37.1195 12.16C37.1195 14.708 38.7435 16.332 40.8995 16.332ZM60.8484 15.632L61.6884 19.44C60.6244 19.972 59.2804 20.224 57.7404 20.224C54.6884 20.224 52.1964 18.852 52.1964 14.372V9.024H50.3484V4.964H52.1964V0.708H56.8164V4.964H61.1844V9.024H56.8164V14.148C56.8164 15.856 57.6844 16.164 58.5524 16.164C59.4484 16.164 60.2044 15.996 60.8484 15.632ZM72.8796 15.632L73.7196 19.44C72.6556 19.972 71.3116 20.224 69.7716 20.224C66.7196 20.224 64.2276 18.852 64.2276 14.372V9.024H62.3796V4.964H64.2276V0.708H68.8476V4.964H73.2156V9.024H68.8476V14.148C68.8476 15.856 69.7156 16.164 70.5836 16.164C71.4796 16.164 72.2356 15.996 72.8796 15.632ZM89.7894 11.74C89.7894 12.748 89.6774 13.672 89.4534 14.26L78.8694 14.12C79.3734 15.828 80.8574 16.696 83.1254 16.696C84.3014 16.696 85.5614 16.472 86.5694 15.968L87.8854 19.104C86.5414 19.804 84.7774 20.224 82.8454 20.224C77.4414 20.224 74.1374 17.256 74.1374 12.384C74.1374 7.792 77.4414 4.544 82.2294 4.544C87.1294 4.544 89.7894 8.072 89.7894 11.74ZM78.8414 11.068L85.2534 10.928C85.1974 9.388 84.2454 8.184 82.2294 8.184C80.5214 8.184 79.2614 9.108 78.8414 11.068ZM100.428 4.488C100.848 4.488 101.268 4.516 101.688 4.6L101.324 9.22C100.82 9.08 100.316 8.996 99.8403 8.996C97.5163 8.996 95.8363 10.816 95.8363 14.4V19.804H91.2163V4.964H95.8363V6.504C97.0403 5.216 98.5803 4.488 100.428 4.488ZM102.527 19.804V16.388L109.639 8.828H102.807V4.964H115.799V8.352L108.715 15.94H116.163V19.804H102.527Z" fill="black"/>
</svg>
