<svg width="200" height="35" viewBox="0 0 200 35" fill="none" xmlns="http://www.w3.org/2000/svg">
<path d="M12.32 34.32C7.12 34.32 2.76 32.36 0.44 28.56L4.84 24.48C6.52 27.04 8.8 28.16 11.64 28.16C14.68 28.16 15.96 26.8 15.96 24.96C15.96 23.08 14.64 21.76 10.56 20.88C4.04 19.48 1.08 16.24 1.08 11.52C1.08 5.56 5.88 1.72 11.4 1.72C16.24 1.72 20 3.84 22.28 7.04L18.04 10.96C16.64 9 14.6 7.84 12.08 7.84C9.6 7.84 8.16 9.12 8.16 10.8C8.16 12.92 9.72 14.08 14.24 15.12C20.4 16.56 23.16 19.88 23.16 24.4C23.16 30.2 19.4 34.32 12.32 34.32ZM34.9519 2.32C43.1119 2.32 48.0319 5.96 48.0319 12.72C48.0319 19.76 43.1119 24 34.8719 24C34.0319 24 33.1119 23.96 32.1519 23.92V33.72H25.3919V23.08L24.3919 22.84L25.3919 18.68V2.32H34.9519ZM34.8719 18.08C39.1919 18.08 41.4319 16.28 41.4319 12.88C41.4319 9.92 39.3519 8.24 34.9519 8.24H32.1519V18C33.0719 18.04 33.9919 18.08 34.8719 18.08ZM66.19 34.32C57.03 34.32 49.75 27.84 49.75 18.36C49.75 6.96 58.87 1.96 65.95 0.959999L66.91 2.2C73.99 2.6 82.63 7 82.63 18.36C82.63 27.84 75.35 34.32 66.19 34.32ZM66.19 28.44C71.99 28.44 76.03 24.64 76.03 18C76.03 11.4 71.91 7.6 66.19 7.6C60.75 7.6 56.31 11.4 56.31 18C56.31 24.64 60.63 28.44 66.19 28.44ZM103.822 2.32V8.76H97.0219V33.72H90.1019V8.76H83.3419V2.32H103.822ZM126.088 2.32V8.76H119.288V33.72H112.368V8.76H105.608V2.32H126.088ZM135.673 27.8H148.113V33.72H128.753V2.32H147.833V8.2H135.673V14.96L146.313 14.52V21.12L135.673 20.68V27.8ZM175.342 33.72H167.782L163.462 22.92C162.902 22.96 162.302 23 161.662 23H157.582V33.72H150.822V2.32H160.862C169.182 2.32 173.702 5.56 173.702 12.2C173.702 15.96 172.182 19 169.462 20.88L175.342 33.72ZM157.582 17.24H161.662C165.422 17.24 167.102 15.56 167.102 12.36C167.102 9.44 165.262 8.08 160.862 8.08H157.582V17.24ZM176.506 33.72V28.6L190.506 8.28H177.106V2.32H199.066V7.36L185.066 27.76H199.586V33.72H176.506Z" fill="black"/>
</svg>
