<svg width="189" height="40" viewBox="0 0 189 40" fill="none" xmlns="http://www.w3.org/2000/svg">
<path d="M5.48 21.24C6.44 23.0267 7.41333 24.2533 8.4 24.92C9.41333 25.5867 10.4267 25.92 11.44 25.92C13.1733 25.92 14.44 25.5867 15.24 24.92C16.0667 24.2267 16.48 23.2933 16.48 22.12C16.48 21.4267 16.24 20.84 15.76 20.36C15.3067 19.88 14.72 19.48 14 19.16C13.3067 18.84 12.3333 18.4667 11.08 18.04C9.16 17.3467 7.58667 16.6933 6.36 16.08C5.16 15.44 4.12 14.52 3.24 13.32C2.36 12.0933 1.92 10.52 1.92 8.6C1.92 6.86667 2.34667 5.36 3.2 4.08C4.05333 2.8 5.24 1.81333 6.76 1.12C8.30667 0.426665 10.08 0.079999 12.08 0.079999C13.28 0.079999 14.52 0.346665 15.8 0.879998C17.1067 1.38666 18.3067 2.2 19.4 3.32C20.52 4.41333 21.4 5.8 22.04 7.48L16.72 9.44C16.08 7.86667 15.3467 6.77333 14.52 6.16C13.72 5.54667 12.9067 5.24 12.08 5.24C11.2 5.24 10.44 5.38667 9.8 5.68C9.18667 5.97333 8.72 6.37333 8.4 6.88C8.10667 7.38667 7.96 7.96 7.96 8.6C7.96 9.29333 8.2 9.89333 8.68 10.4C9.16 10.9067 9.76 11.3333 10.48 11.68C11.2267 12.0267 12.2533 12.4533 13.56 12.96C15.4533 13.7067 16.9867 14.4 18.16 15.04C19.36 15.68 20.3867 16.5867 21.24 17.76C22.0933 18.9067 22.52 20.36 22.52 22.12C22.52 23.88 22.0667 25.44 21.16 26.8C20.28 28.1333 19 29.1867 17.32 29.96C15.6667 30.7067 13.7067 31.08 11.44 31.08C9.22667 31.08 7.18667 30.4667 5.32 29.24C3.48 27.9867 1.89333 26.2533 0.56 24.04L5.48 21.24ZM40.8397 20.72C40.8397 19.1467 40.533 17.9733 39.9197 17.2C39.3064 16.4267 38.333 16.04 36.9997 16.04C36.3597 16.0667 35.7597 16.2667 35.1997 16.64C34.6397 16.9867 34.1997 17.5067 33.8797 18.2C33.5864 18.8933 33.453 19.7333 33.4797 20.72V30.8H27.3997V10.92H33.4797V15.24L32.7997 15.08C33.253 13.8267 34.0397 12.84 35.1597 12.12C36.3064 11.4 37.4797 11.04 38.6797 11.04C39.8264 11.04 41.013 11.3067 42.2397 11.84C43.493 12.3733 44.5864 13.36 45.5197 14.8C46.453 16.24 46.9197 18.2133 46.9197 20.72V30.8H40.8397V20.72ZM59.8594 30.84C58.046 30.84 56.4594 30.4267 55.0994 29.6C53.7394 28.7467 52.686 27.5733 51.9394 26.08C51.1927 24.56 50.8194 22.8267 50.8194 20.88C50.8194 18.9333 51.1927 17.2133 51.9394 15.72C52.686 14.2 53.7394 13.0267 55.0994 12.2C56.4594 11.3467 58.046 10.92 59.8594 10.92C60.846 10.92 61.8327 11.1333 62.8194 11.56C63.806 11.9867 64.606 12.6667 65.2194 13.6L65.0594 13.96V10.88H71.1394V30.8H65.0594V27.8L65.2194 28.2C64.7927 28.84 64.2727 29.36 63.6594 29.76C63.046 30.1333 62.406 30.4 61.7394 30.56C61.0994 30.7467 60.4727 30.84 59.8594 30.84ZM60.8194 25.92C61.5927 25.92 62.2994 25.7067 62.9394 25.28C63.5794 24.8267 64.086 24.2267 64.4594 23.48C64.8594 22.7067 65.0594 21.84 65.0594 20.88C65.0594 19.92 64.8594 19.0667 64.4594 18.32C64.086 17.5467 63.5794 16.9467 62.9394 16.52C62.2994 16.0667 61.5927 15.84 60.8194 15.84C59.9927 15.84 59.286 16.04 58.6994 16.44C58.1127 16.84 57.6594 17.4133 57.3394 18.16C57.046 18.9067 56.8994 19.8133 56.8994 20.88C56.8994 21.9467 57.046 22.8533 57.3394 23.6C57.6594 24.3467 58.1127 24.92 58.6994 25.32C59.286 25.72 59.9927 25.92 60.8194 25.92ZM87.2984 25.8C88.0984 25.8 88.7918 25.6 89.3784 25.2C89.9651 24.8 90.4051 24.2267 90.6984 23.48C91.0184 22.7333 91.1784 21.8267 91.1784 20.76C91.1784 19.6933 91.0184 18.7867 90.6984 18.04C90.4051 17.2933 89.9651 16.72 89.3784 16.32C88.7918 15.92 88.0984 15.72 87.2984 15.72C86.4718 15.72 85.7251 15.9467 85.0584 16.4C84.4184 16.8267 83.8984 17.4267 83.4984 18.2C83.1251 18.9467 82.9384 19.8 82.9384 20.76C82.9384 21.72 83.1251 22.5867 83.4984 23.36C83.8984 24.1067 84.4184 24.7067 85.0584 25.16C85.7251 25.5867 86.4718 25.8 87.2984 25.8ZM88.1784 10.8C89.9918 10.8 91.5784 11.2267 92.9384 12.08C94.3251 12.9067 95.3918 14.08 96.1384 15.6C96.8851 17.0933 97.2584 18.8133 97.2584 20.76C97.2584 22.7067 96.8851 24.44 96.1384 25.96C95.3918 27.48 94.3251 28.6667 92.9384 29.52C91.5784 30.3467 89.9918 30.76 88.1784 30.76C87.8051 30.76 87.3384 30.7067 86.7784 30.6C86.2184 30.4933 85.5784 30.2533 84.8584 29.88C84.1384 29.48 83.4984 28.8933 82.9384 28.12V27.2V39.08H76.8584V10.84H82.9384V14.12V13.44C83.7118 12.4267 84.6184 11.7333 85.6584 11.36C86.7251 10.9867 87.5651 10.8 88.1784 10.8ZM106.691 21.24C107.651 23.0267 108.624 24.2533 109.611 24.92C110.624 25.5867 111.638 25.92 112.651 25.92C114.384 25.92 115.651 25.5867 116.451 24.92C117.278 24.2267 117.691 23.2933 117.691 22.12C117.691 21.4267 117.451 20.84 116.971 20.36C116.518 19.88 115.931 19.48 115.211 19.16C114.518 18.84 113.544 18.4667 112.291 18.04C110.371 17.3467 108.798 16.6933 107.571 16.08C106.371 15.44 105.331 14.52 104.451 13.32C103.571 12.0933 103.131 10.52 103.131 8.6C103.131 6.86667 103.558 5.36 104.411 4.08C105.264 2.8 106.451 1.81333 107.971 1.12C109.518 0.426665 111.291 0.079999 113.291 0.079999C114.491 0.079999 115.731 0.346665 117.011 0.879998C118.318 1.38666 119.518 2.2 120.611 3.32C121.731 4.41333 122.611 5.8 123.251 7.48L117.931 9.44C117.291 7.86667 116.558 6.77333 115.731 6.16C114.931 5.54667 114.118 5.24 113.291 5.24C112.411 5.24 111.651 5.38667 111.011 5.68C110.398 5.97333 109.931 6.37333 109.611 6.88C109.318 7.38667 109.171 7.96 109.171 8.6C109.171 9.29333 109.411 9.89333 109.891 10.4C110.371 10.9067 110.971 11.3333 111.691 11.68C112.438 12.0267 113.464 12.4533 114.771 12.96C116.664 13.7067 118.198 14.4 119.371 15.04C120.571 15.68 121.598 16.5867 122.451 17.76C123.304 18.9067 123.731 20.36 123.731 22.12C123.731 23.88 123.278 25.44 122.371 26.8C121.491 28.1333 120.211 29.1867 118.531 29.96C116.878 30.7067 114.918 31.08 112.651 31.08C110.438 31.08 108.398 30.4667 106.531 29.24C104.691 27.9867 103.104 26.2533 101.771 24.04L106.691 21.24ZM139.291 25.8C140.091 25.8 140.784 25.6 141.371 25.2C141.957 24.8 142.397 24.2267 142.691 23.48C143.011 22.7333 143.171 21.8267 143.171 20.76C143.171 19.6933 143.011 18.7867 142.691 18.04C142.397 17.2933 141.957 16.72 141.371 16.32C140.784 15.92 140.091 15.72 139.291 15.72C138.464 15.72 137.717 15.9467 137.051 16.4C136.411 16.8267 135.891 17.4267 135.491 18.2C135.117 18.9467 134.931 19.8 134.931 20.76C134.931 21.72 135.117 22.5867 135.491 23.36C135.891 24.1067 136.411 24.7067 137.051 25.16C137.717 25.5867 138.464 25.8 139.291 25.8ZM140.171 10.8C141.984 10.8 143.571 11.2267 144.931 12.08C146.317 12.9067 147.384 14.08 148.131 15.6C148.877 17.0933 149.251 18.8133 149.251 20.76C149.251 22.7067 148.877 24.44 148.131 25.96C147.384 27.48 146.317 28.6667 144.931 29.52C143.571 30.3467 141.984 30.76 140.171 30.76C139.797 30.76 139.331 30.7067 138.771 30.6C138.211 30.4933 137.571 30.2533 136.851 29.88C136.131 29.48 135.491 28.8933 134.931 28.12V27.2V39.08H128.851V10.84H134.931V14.12V13.44C135.704 12.4267 136.611 11.7333 137.651 11.36C138.717 10.9867 139.557 10.8 140.171 10.8ZM162.533 25.8C163.306 25.8 163.959 25.6133 164.493 25.24C165.053 24.84 165.479 24.2667 165.773 23.52C166.066 22.7733 166.213 21.88 166.213 20.84C166.213 19.8 166.066 18.9067 165.773 18.16C165.479 17.4133 165.053 16.84 164.493 16.44C163.959 16.04 163.306 15.84 162.533 15.84C161.786 15.84 161.133 16.04 160.573 16.44C160.013 16.84 159.586 17.4133 159.293 18.16C158.999 18.9067 158.853 19.8 158.853 20.84C158.853 21.88 158.999 22.7733 159.293 23.52C159.586 24.2667 159.999 24.84 160.533 25.24C161.093 25.6133 161.759 25.8 162.533 25.8ZM162.533 10.84C164.426 10.84 166.106 11.2667 167.573 12.12C169.066 12.9733 170.226 14.16 171.053 15.68C171.879 17.1733 172.293 18.8933 172.293 20.84C172.293 22.76 171.879 24.48 171.053 26C170.226 27.4933 169.066 28.6667 167.573 29.52C166.106 30.3733 164.426 30.8 162.533 30.8C160.639 30.8 158.946 30.3733 157.453 29.52C155.986 28.6667 154.839 27.4933 154.013 26C153.186 24.48 152.773 22.76 152.773 20.84C152.773 18.8933 153.186 17.1733 154.013 15.68C154.839 14.16 155.986 12.9733 157.453 12.12C158.946 11.2667 160.639 10.84 162.533 10.84ZM178.008 3.72H184.088V30.8H178.008V3.72ZM174.048 10.8H188.768V16H174.048V10.8Z" fill="black"/>
</svg>
