<svg width="166" height="36" viewBox="0 0 166 36" fill="none" xmlns="http://www.w3.org/2000/svg">
<path d="M11 28.32C6.96 28.32 3.4 27.28 0.88 24.84L3.8 20.76C5.68 22.32 8.28 23.12 10.44 23.12C12.32 23.12 13.12 22.4 13.12 21.44C13.12 20.44 11.92 19.68 8.6 19.08C3.56 18.12 1.16 16.08 1.16 12.6C1.16 8.64 4.64 5.88 9.72 5.88C13.44 5.88 16.52 7.08 18.72 8.84L15.96 12.88C14.28 11.64 12.2 10.96 10.16 10.96C8.52 10.96 7.68 11.52 7.68 12.4C7.68 13.44 8.44 14 12.64 14.76C17.4 15.64 19.76 17.88 19.76 21.36C19.76 25.36 16.6 28.32 11 28.32ZM34.7906 5.92C40.5906 5.92 44.5906 10.76 44.5906 17.12C44.5906 23.52 40.5906 28.32 34.7906 28.32C32.1906 28.32 30.1106 27.32 28.5106 25.8V35.32H21.9106V6.52H28.5106V8.44C30.1106 6.92 32.1906 5.92 34.7906 5.92ZM33.1506 22.76C36.2306 22.76 37.9906 20.52 37.9906 17.12C37.9906 13.72 36.2306 11.48 33.1506 11.48C30.1906 11.48 28.1906 14 28.1906 17.12C28.1906 20.2 30.1906 22.76 33.1506 22.76ZM58.4278 28.32C51.4678 28.32 46.4278 23.6 46.4278 17.16C46.4278 10.48 51.5878 6.08 58.5078 5.16L59.1478 6.08C66.0278 6.48 70.4678 10.56 70.4678 17.16C70.4678 23.6 65.4278 28.32 58.4278 28.32ZM58.4278 22.76C61.7878 22.76 63.7878 20.44 63.7878 16.8C63.7878 13.28 61.7878 11.16 58.4278 11.16C55.4278 11.16 53.0278 13.28 53.0278 16.8C53.0278 20.44 55.3478 22.76 58.4278 22.76ZM86.9263 21.76L88.1263 27.2C86.6063 27.96 84.6863 28.32 82.4863 28.32C78.1263 28.32 74.5663 26.36 74.5663 19.96V12.32H71.9263V6.52H74.5663V0.44H81.1663V6.52H87.4063V12.32H81.1663V19.64C81.1663 22.08 82.4063 22.52 83.6463 22.52C84.9263 22.52 86.0063 22.28 86.9263 21.76ZM104.114 21.76L105.314 27.2C103.794 27.96 101.874 28.32 99.6738 28.32C95.3138 28.32 91.7538 26.36 91.7538 19.96V12.32H89.1138V6.52H91.7538V0.44H98.3538V6.52H104.594V12.32H98.3538V19.64C98.3538 22.08 99.5938 22.52 100.834 22.52C102.114 22.52 103.194 22.28 104.114 21.76ZM128.271 16.2C128.271 17.64 128.111 18.96 127.791 19.8L112.671 19.6C113.391 22.04 115.511 23.28 118.751 23.28C120.431 23.28 122.231 22.96 123.671 22.24L125.551 26.72C123.631 27.72 121.111 28.32 118.351 28.32C110.631 28.32 105.911 24.08 105.911 17.12C105.911 10.56 110.631 5.92 117.471 5.92C124.471 5.92 128.271 10.96 128.271 16.2ZM112.631 15.24L121.791 15.04C121.711 12.84 120.351 11.12 117.471 11.12C115.031 11.12 113.231 12.44 112.631 15.24ZM143.469 5.84C144.069 5.84 144.669 5.88 145.269 6L144.749 12.6C144.029 12.4 143.309 12.28 142.629 12.28C139.309 12.28 136.909 14.88 136.909 20V27.72H130.309V6.52H136.909V8.72C138.629 6.88 140.829 5.84 143.469 5.84ZM146.467 27.72V22.84L156.627 12.04H146.867V6.52H165.427V11.36L155.307 22.2H165.947V27.72H146.467Z" fill="black"/>
</svg>
