<svg xmlns="http://www.w3.org/2000/svg" width="25" height="25" viewBox="0 0 25 25" fill="none">
<mask id="mask0_2_452" style="mask-type:alpha" maskUnits="userSpaceOnUse" x="0" y="0" width="25" height="25">
<rect width="25" height="25" fill="#D9D9D9"/>
</mask>
<g mask="url(#mask0_2_452)">
<path d="M12.5 12.5C11.3541 12.5 10.3732 12.092 9.55725 11.276C8.74128 10.4601 8.33329 9.47916 8.33329 8.33333C8.33329 7.1875 8.74128 6.20659 9.55725 5.39062C10.3732 4.57465 11.3541 4.16666 12.5 4.16666C13.6458 4.16666 14.6267 4.57465 15.4427 5.39062C16.2586 6.20659 16.6666 7.1875 16.6666 8.33333C16.6666 9.47916 16.2586 10.4601 15.4427 11.276C14.6267 12.092 13.6458 12.5 12.5 12.5ZM4.16663 20.8333V17.9167C4.16663 17.3264 4.31854 16.7839 4.62236 16.2891C4.92617 15.7943 5.32982 15.4167 5.83329 15.1562C6.90968 14.6181 8.00343 14.2144 9.11454 13.9453C10.2257 13.6762 11.3541 13.5417 12.5 13.5417C13.6458 13.5417 14.7743 13.6762 15.8854 13.9453C16.9965 14.2144 18.0902 14.6181 19.1666 15.1562C19.6701 15.4167 20.0737 15.7943 20.3776 16.2891C20.6814 16.7839 20.8333 17.3264 20.8333 17.9167V20.8333H4.16663Z" fill="#69D2FF"/>
</g>
</svg>