<svg xmlns="http://www.w3.org/2000/svg" width="25" height="25" viewBox="0 0 25 25" fill="none">
<mask id="mask0_2_492" style="mask-type:alpha" maskUnits="userSpaceOnUse" x="0" y="0" width="25" height="25">
<rect width="25" height="25" fill="#D9D9D9"/>
</mask>
<g mask="url(#mask0_2_492)">
<path d="M12.5 21.875L10.9896 20.5208C9.23615 18.941 7.7865 17.5781 6.64067 16.4323C5.49483 15.2865 4.58337 14.2578 3.90629 13.3464C3.22921 12.4349 2.75612 11.5972 2.48702 10.8333C2.21792 10.0694 2.08337 9.28819 2.08337 8.48958C2.08337 6.85764 2.63025 5.49479 3.724 4.40104C4.81775 3.30729 6.1806 2.76041 7.81254 2.76041C8.71532 2.76041 9.57469 2.95139 10.3907 3.33333C11.2066 3.71528 11.9098 4.25347 12.5 4.94791C13.0903 4.25347 13.7934 3.71528 14.6094 3.33333C15.4254 2.95139 16.2848 2.76041 17.1875 2.76041C18.8195 2.76041 20.1823 3.30729 21.2761 4.40104C22.3698 5.49479 22.9167 6.85764 22.9167 8.48958C22.9167 9.28819 22.7822 10.0694 22.5131 10.8333C22.244 11.5972 21.7709 12.4349 21.0938 13.3464C20.4167 14.2578 19.5053 15.2865 18.3594 16.4323C17.2136 17.5781 15.7639 18.941 14.0105 20.5208L12.5 21.875Z" fill="#69D2FF"/>
</g>
</svg>