<svg xmlns="http://www.w3.org/2000/svg" width="25" height="25" viewBox="0 0 25 25" fill="none">
<mask id="mask0_2_445" style="mask-type:alpha" maskUnits="userSpaceOnUse" x="0" y="0" width="25" height="25">
<rect width="25" height="25" fill="#D9D9D9"/>
</mask>
<g mask="url(#mask0_2_445)">
<path d="M12.5 21.875L10.9896 20.5208C9.23615 18.941 7.7865 17.5781 6.64067 16.4323C5.49483 15.2865 4.58337 14.2578 3.90629 13.3464C3.22921 12.4349 2.75612 11.5972 2.48702 10.8333C2.21792 10.0694 2.08337 9.2882 2.08337 8.48959C2.08337 6.85764 2.63025 5.4948 3.724 4.40105C4.81775 3.3073 6.1806 2.76042 7.81254 2.76042C8.71532 2.76042 9.57469 2.95139 10.3907 3.33334C11.2066 3.71528 11.9098 4.25348 12.5 4.94792C13.0903 4.25348 13.7934 3.71528 14.6094 3.33334C15.4254 2.95139 16.2848 2.76042 17.1875 2.76042C18.8195 2.76042 20.1823 3.3073 21.2761 4.40105C22.3698 5.4948 22.9167 6.85764 22.9167 8.48959C22.9167 9.2882 22.7822 10.0694 22.5131 10.8333C22.244 11.5972 21.7709 12.4349 21.0938 13.3464C20.4167 14.2578 19.5053 15.2865 18.3594 16.4323C17.2136 17.5781 15.7639 18.941 14.0105 20.5208L12.5 21.875ZM12.5 19.0625C14.1667 17.5694 15.5382 16.2891 16.6146 15.2214C17.691 14.1537 18.5417 13.2248 19.1667 12.4349C19.7917 11.645 20.2257 10.9418 20.4688 10.3255C20.7118 9.70921 20.8334 9.09723 20.8334 8.48959C20.8334 7.44792 20.4862 6.57987 19.7917 5.88542C19.0973 5.19098 18.2292 4.84376 17.1875 4.84376C16.3716 4.84376 15.6164 5.07379 14.9219 5.53386C14.2275 5.99393 13.75 6.57987 13.4896 7.29167H11.5105C11.25 6.57987 10.7726 5.99393 10.0782 5.53386C9.38372 5.07379 8.62851 4.84376 7.81254 4.84376C6.77087 4.84376 5.90282 5.19098 5.20837 5.88542C4.51393 6.57987 4.16671 7.44792 4.16671 8.48959C4.16671 9.09723 4.28824 9.70921 4.53129 10.3255C4.77435 10.9418 5.20837 11.645 5.83337 12.4349C6.45837 13.2248 7.30907 14.1537 8.38546 15.2214C9.46185 16.2891 10.8334 17.5694 12.5 19.0625Z" fill="#69D2FF"/>
</g>
</svg>